<?xml version="1.0" encoding="UTF-8" standalone="no"?>
<!-- Generator: Adobe Illustrator 16.0.3, SVG Export Plug-In . SVG Version: 6.00 Build 0)  -->

<svg
   xmlns:dc="http://purl.org/dc/elements/1.1/"
   xmlns:cc="http://creativecommons.org/ns#"
   xmlns:rdf="http://www.w3.org/1999/02/22-rdf-syntax-ns#"
   xmlns:svg="http://www.w3.org/2000/svg"
   xmlns="http://www.w3.org/2000/svg"
   xmlns:sodipodi="http://sodipodi.sourceforge.net/DTD/sodipodi-0.dtd"
   xmlns:inkscape="http://www.inkscape.org/namespaces/inkscape"
   version="1.1"
   id="Layer_3"
   x="0px"
   y="0px"
   width="48"
   height="48"
   viewBox="0 0 48 48"
   enable-background="new 0 0 24 24"
   xml:space="preserve"
   inkscape:version="0.48.4 r9939"
   sodipodi:docname="account.svg"><metadata
   id="metadata3249"><rdf:RDF><cc:Work
       rdf:about=""><dc:format>image/svg+xml</dc:format><dc:type
         rdf:resource="http://purl.org/dc/dcmitype/StillImage" /></cc:Work></rdf:RDF></metadata><defs
   id="defs3247" /><sodipodi:namedview
   pagecolor="#000000"
   bordercolor="#666666"
   borderopacity="1"
   objecttolerance="10"
   gridtolerance="10"
   guidetolerance="10"
   inkscape:pageopacity="0"
   inkscape:pageshadow="2"
   inkscape:window-width="1920"
   inkscape:window-height="1017"
   id="namedview3245"
   showgrid="false"
   inkscape:zoom="9.8333333"
   inkscape:cx="12"
   inkscape:cy="24.20339"
   inkscape:window-x="1912"
   inkscape:window-y="-8"
   inkscape:window-maximized="1"
   inkscape:current-layer="Layer_3" />
<circle
   cx="12"
   cy="6.0180001"
   r="3.869"
   id="circle3231"
   sodipodi:cx="12"
   sodipodi:cy="6.0180001"
   sodipodi:rx="3.869"
   sodipodi:ry="3.869"
   style="fill:#ffffff"
   transform="matrix(1.75,0,0,1.75,3.000375,3.0003749)" />
<path
   d="m 36.754375,38.353875 c 0,0 -6.3595,2.884 -12.754,2.884 -6.3945,0 -12.75575,-2.884 -12.75575,-2.884 0.20475,-17.49825 5.47575,-17.30225 5.47575,-17.30225 l 0.0017,0.0017 c 1.88475,1.8235 4.45025,2.9435 7.27825,2.9435 2.9295,0 5.579,-1.204 7.48125,-3.143 0,0.0018 5.27275,0.0018 5.27275,17.5 z"
   id="path3233"
   inkscape:connector-curvature="0"
   style="fill:#ffffff" />
<g
   id="g3235"
   transform="translate(0,24)">
</g>
<g
   id="g3237"
   transform="translate(0,24)">
</g>
<g
   id="g3239"
   transform="translate(0,24)">
</g>
<g
   id="g3241"
   transform="translate(0,24)">
</g>
<g
   id="g3243"
   transform="translate(0,24)">
</g>
</svg>