<?xml version="1.0" encoding="UTF-8" standalone="no"?>
<!-- Generator: Adobe Illustrator 16.0.3, SVG Export Plug-In . SVG Version: 6.00 Build 0)  -->

<svg
   xmlns:dc="http://purl.org/dc/elements/1.1/"
   xmlns:cc="http://creativecommons.org/ns#"
   xmlns:rdf="http://www.w3.org/1999/02/22-rdf-syntax-ns#"
   xmlns:svg="http://www.w3.org/2000/svg"
   xmlns="http://www.w3.org/2000/svg"
   xmlns:sodipodi="http://sodipodi.sourceforge.net/DTD/sodipodi-0.dtd"
   xmlns:inkscape="http://www.inkscape.org/namespaces/inkscape"
   version="1.1"
   id="Layer_4"
   x="0px"
   y="0px"
   width="48"
   height="48"
   viewBox="0 0 48 48"
   enable-background="new 0 0 24 24"
   xml:space="preserve"
   inkscape:version="0.48.4 r9939"
   sodipodi:docname="community.svg"><metadata
   id="metadata3207"><rdf:RDF><cc:Work
       rdf:about=""><dc:format>image/svg+xml</dc:format><dc:type
         rdf:resource="http://purl.org/dc/dcmitype/StillImage" /></cc:Work></rdf:RDF></metadata><defs
   id="defs3205" /><sodipodi:namedview
   pagecolor="#ffffff"
   bordercolor="#666666"
   borderopacity="1"
   objecttolerance="10"
   gridtolerance="10"
   guidetolerance="10"
   inkscape:pageopacity="0"
   inkscape:pageshadow="2"
   inkscape:window-width="1920"
   inkscape:window-height="1017"
   id="namedview3203"
   showgrid="false"
   inkscape:zoom="9.8333333"
   inkscape:cx="-4.8813559"
   inkscape:cy="12"
   inkscape:window-x="1912"
   inkscape:window-y="-8"
   inkscape:window-maximized="1"
   inkscape:current-layer="Layer_4" />
<path
   d="m 18.79275,30.8175 c -6.846,-1.5505 -11.802,-6.07075 -11.802,-11.4065 0,-6.615 7.616,-11.977 17.00825,-11.977 9.39225,0 17.00825,5.362 17.00825,11.977 0,5.2745 -4.84225,9.751 -11.564,11.3505 L 18.7945,41.426 18.79275,30.8175 z m -0.763,-3.738 c 0.20125,0.2625 2.919,-1.72375 3.23225,-1.98975 2.07725,-1.76925 3.39325,-4.72675 2.8,-7.476 -0.58275,-2.6985 -4.41175,-4.91225 -6.38575,-2.0895 -1.48925,2.1245 0.92575,5.60875 3.2655,3.65925 0.77875,3.1185 -1.71675,4.9175 -4.025,6.43475 0.371,0.48825 0.74025,0.97475 1.113,1.46125 z m 9.76675,0 c 0.20125,0.2625 2.919,-1.72375 3.23225,-1.98975 2.07725,-1.771 3.395,-4.72675 2.8,-7.476 -0.5845,-2.70025 -4.4065,-4.9105 -6.384,-2.0895 -1.49275,2.1245 0.92575,5.607 3.26375,3.65925 0.77875,3.1185 -1.71675,4.9175 -4.025,6.43475 0.36925,0.48825 0.742,0.97475 1.113,1.46125 z"
   id="path3191"
   inkscape:connector-curvature="0"
   style="fill:#ffffff" />
<g
   id="g3193"
   transform="matrix(1.75,0,0,1.75,3.00075,2.6775)">
</g>
<g
   id="g3195"
   transform="matrix(1.75,0,0,1.75,3.00075,2.6775)">
</g>
<g
   id="g3197"
   transform="matrix(1.75,0,0,1.75,3.00075,2.6775)">
</g>
<g
   id="g3199"
   transform="matrix(1.75,0,0,1.75,3.00075,2.6775)">
</g>
<g
   id="g3201"
   transform="matrix(1.75,0,0,1.75,3.00075,2.6775)">
</g>
</svg>