<?xml version="1.0" encoding="UTF-8" standalone="no"?>
<!-- Generator: Adobe Illustrator 16.0.3, SVG Export Plug-In . SVG Version: 6.00 Build 0)  -->

<svg
   xmlns:dc="http://purl.org/dc/elements/1.1/"
   xmlns:cc="http://creativecommons.org/ns#"
   xmlns:rdf="http://www.w3.org/1999/02/22-rdf-syntax-ns#"
   xmlns:svg="http://www.w3.org/2000/svg"
   xmlns="http://www.w3.org/2000/svg"
   xmlns:sodipodi="http://sodipodi.sourceforge.net/DTD/sodipodi-0.dtd"
   xmlns:inkscape="http://www.inkscape.org/namespaces/inkscape"
   version="1.1"
   id="Layer_4"
   x="0px"
   y="0px"
   width="48"
   height="48"
   viewBox="0 0 48 48"
   enable-background="new 0 0 24 24"
   xml:space="preserve"
   inkscape:version="0.48.4 r9939"
   sodipodi:docname="games.svg"><metadata
   id="metadata3169"><rdf:RDF><cc:Work
       rdf:about=""><dc:format>image/svg+xml</dc:format><dc:type
         rdf:resource="http://purl.org/dc/dcmitype/StillImage" /></cc:Work></rdf:RDF></metadata><defs
   id="defs3167" /><sodipodi:namedview
   pagecolor="#ffffff"
   bordercolor="#666666"
   borderopacity="1"
   objecttolerance="10"
   gridtolerance="10"
   guidetolerance="10"
   inkscape:pageopacity="0"
   inkscape:pageshadow="2"
   inkscape:window-width="1920"
   inkscape:window-height="1017"
   id="namedview3165"
   showgrid="false"
   inkscape:zoom="9.8333333"
   inkscape:cx="-4.8813559"
   inkscape:cy="12"
   inkscape:window-x="1912"
   inkscape:window-y="-8"
   inkscape:window-maximized="1"
   inkscape:current-layer="Layer_4" />
<polygon
   points="13.953,20.797 15.75,18.359 13.875,16.031 10.266,16.031 8.391,18.359 10.203,20.797 "
   id="polygon3141"
   style="fill:#ffffff"
   transform="matrix(1.75,0,0,1.75,2.994,2.55)" />
<polygon
   points="13.859,14.359 15.556,12.175 13.781,10.078 10.359,10.078 8.575,12.175 10.281,14.359 "
   id="polygon3143"
   style="fill:#ffffff"
   transform="matrix(1.75,0,0,1.75,2.994,2.55)" />
<polygon
   points="13.75,8.231 15.391,6.266 13.703,4.403 10.466,4.403 8.766,6.266 10.388,8.231 "
   id="polygon3145"
   style="fill:#ffffff"
   transform="matrix(1.75,0,0,1.75,2.994,2.55)" />
<polygon
   points="6.094,11.299 7.922,9.234 6.313,7.234 2.969,7.234 1.1,9.219 2.649,11.299 "
   id="polygon3147"
   style="fill:#ffffff"
   transform="matrix(1.75,0,0,1.75,2.994,2.55)" />
<polygon
   points="17.901,11.034 16.093,8.97 17.685,6.97 20.994,6.97 22.844,8.954 21.312,11.034 "
   id="polygon3149"
   style="fill:#ffffff"
   transform="matrix(1.75,0,0,1.75,2.994,2.55)" />
<polygon
   points="5.781,17.687 7.703,15.359 6.016,13.141 2.5,13.141 0.516,15.359 2.121,17.687 "
   id="polygon3151"
   style="fill:#ffffff"
   transform="matrix(1.75,0,0,1.75,2.994,2.55)" />
<polygon
   points="21.906,17.75 23.5,15.453 21.531,13.219 18,13.219 16.328,15.438 18.217,17.734 "
   id="polygon3153"
   style="fill:#ffffff"
   transform="matrix(1.75,0,0,1.75,2.994,2.55)" />
<g
   id="g3155"
   transform="translate(0,24)">
</g>
<g
   id="g3157"
   transform="translate(0,24)">
</g>
<g
   id="g3159"
   transform="translate(0,24)">
</g>
<g
   id="g3161"
   transform="translate(0,24)">
</g>
<g
   id="g3163"
   transform="translate(0,24)">
</g>
</svg>