<?xml version="1.0" encoding="UTF-8" standalone="no"?>
<!-- Generator: Adobe Illustrator 16.0.3, SVG Export Plug-In . SVG Version: 6.00 Build 0)  -->

<svg
   xmlns:dc="http://purl.org/dc/elements/1.1/"
   xmlns:cc="http://creativecommons.org/ns#"
   xmlns:rdf="http://www.w3.org/1999/02/22-rdf-syntax-ns#"
   xmlns:svg="http://www.w3.org/2000/svg"
   xmlns="http://www.w3.org/2000/svg"
   xmlns:sodipodi="http://sodipodi.sourceforge.net/DTD/sodipodi-0.dtd"
   xmlns:inkscape="http://www.inkscape.org/namespaces/inkscape"
   version="1.1"
   id="Layer_4"
   x="0px"
   y="0px"
   width="48"
   height="48"
   viewBox="0 0 48 48"
   enable-background="new 0 0 24 24"
   xml:space="preserve"
   inkscape:version="0.48.4 r9939"
   sodipodi:docname="help.svg"><metadata
   id="metadata3107"><rdf:RDF><cc:Work
       rdf:about=""><dc:format>image/svg+xml</dc:format><dc:type
         rdf:resource="http://purl.org/dc/dcmitype/StillImage" /></cc:Work></rdf:RDF></metadata><defs
   id="defs3105" /><sodipodi:namedview
   pagecolor="#ffffff"
   bordercolor="#666666"
   borderopacity="1"
   objecttolerance="10"
   gridtolerance="10"
   guidetolerance="10"
   inkscape:pageopacity="0"
   inkscape:pageshadow="2"
   inkscape:window-width="1920"
   inkscape:window-height="1017"
   id="namedview3103"
   showgrid="false"
   inkscape:zoom="9.8333333"
   inkscape:cx="-4.8813559"
   inkscape:cy="12"
   inkscape:window-x="1912"
   inkscape:window-y="-8"
   inkscape:window-maximized="1"
   inkscape:current-layer="Layer_4" />
<path
   d="m 24,40.734875 c -9.24175,0 -16.73525,-7.49175 -16.73525,-16.73525 0,-9.2435 7.4935,-16.7335 16.73525,-16.7335 9.24175,0 16.73525,7.49175 16.73525,16.7335 0,9.24175 -7.4935,16.73525 -16.73525,16.73525 z m 2.282,-13.35075 c 0.23275,-0.48475 0.83125,-1.1305 1.79375,-1.932 1.86025,-1.547 3.0765,-2.77025 3.6435,-3.66975 0.56875,-0.89775 0.85225,-1.8515 0.85225,-2.85775 0,-1.81825 -0.7735,-3.4125 -2.32225,-4.781 -1.54525,-1.3685 -3.6295,-2.05275 -6.24925,-2.05275 -2.49025,0 -4.49925,0.67725 -6.0305,2.03 -1.53125,1.35275 -2.35725,2.99775 -2.47625,4.935 l 4.1895,0.51975 c 0.29225,-1.35275 0.82775,-2.359 1.6065,-3.0205 0.77875,-0.65975 1.74825,-0.9905 2.90675,-0.9905 1.20225,0 2.156,0.31675 2.8665,0.9485 0.707,0.6335 1.06225,1.39475 1.06225,2.282 0,0.63875 -0.1995,1.22325 -0.602,1.7535 -0.259,0.336 -1.05525,1.04475 -2.38525,2.12625 -1.33175,1.08325 -2.219,2.05625 -2.66175,2.9225 -0.4445,0.86625 -0.665,1.96875 -0.665,3.311 0,0.1295 0.0053,0.4935 0.01575,1.0885 h 4.1405 c -0.02625,-1.25475 0.0805,-2.12625 0.315,-2.61275 z m 0.105,8.75175 v -4.56225 h -4.56225 v 4.56225 H 26.387 z"
   id="path3091"
   inkscape:connector-curvature="0"
   style="fill:#ffffff" />
<g
   id="g3093"
   transform="translate(0,24)">
</g>
<g
   id="g3095"
   transform="translate(0,24)">
</g>
<g
   id="g3097"
   transform="translate(0,24)">
</g>
<g
   id="g3099"
   transform="translate(0,24)">
</g>
<g
   id="g3101"
   transform="translate(0,24)">
</g>
</svg>