<?xml version="1.0" encoding="UTF-8" standalone="no"?>
<!-- Generator: Adobe Illustrator 16.0.3, SVG Export Plug-In . SVG Version: 6.00 Build 0)  -->

<svg
   xmlns:dc="http://purl.org/dc/elements/1.1/"
   xmlns:cc="http://creativecommons.org/ns#"
   xmlns:rdf="http://www.w3.org/1999/02/22-rdf-syntax-ns#"
   xmlns:svg="http://www.w3.org/2000/svg"
   xmlns="http://www.w3.org/2000/svg"
   xmlns:sodipodi="http://sodipodi.sourceforge.net/DTD/sodipodi-0.dtd"
   xmlns:inkscape="http://www.inkscape.org/namespaces/inkscape"
   version="1.1"
   id="Layer_3"
   x="0px"
   y="0px"
   width="48"
   height="48"
   viewBox="0 0 48 48"
   enable-background="new 0 0 24 24"
   xml:space="preserve"
   inkscape:version="0.48.4 r9939"
   sodipodi:docname="home.svg"><metadata
   id="metadata3029"><rdf:RDF><cc:Work
       rdf:about=""><dc:format>image/svg+xml</dc:format><dc:type
         rdf:resource="http://purl.org/dc/dcmitype/StillImage" /></cc:Work></rdf:RDF></metadata><defs
   id="defs3027" /><sodipodi:namedview
   pagecolor="#ffffff"
   bordercolor="#666666"
   borderopacity="1"
   objecttolerance="10"
   gridtolerance="10"
   guidetolerance="10"
   inkscape:pageopacity="0"
   inkscape:pageshadow="2"
   inkscape:window-width="1920"
   inkscape:window-height="1017"
   id="namedview3025"
   showgrid="false"
   inkscape:zoom="12.227055"
   inkscape:cx="15.933089"
   inkscape:cy="18.808521"
   inkscape:window-x="1912"
   inkscape:window-y="-8"
   inkscape:window-maximized="1"
   inkscape:current-layer="Layer_3" />
<polyline
   stroke-miterlimit="10"
   points="3.105,13.296 12.086,4.461   21.312,13.296 "
   id="polyline3009"
   style="fill:none;stroke:#ffffff;stroke-width:2.25;stroke-miterlimit:10"
   transform="matrix(1.75,0,0,1.75,2.843625,2.413125)" />
<line
   stroke-miterlimit="10"
   x1="33.816875"
   y1="12.428374"
   x2="33.816875"
   y2="19.178127"
   id="line3011"
   style="fill:none;stroke:#ffffff;stroke-width:3.9375;stroke-miterlimit:10" />
<polygon
   points="5.057,15.877 5.057,22.229 19.115,22.229 19.115,15.877 12.086,8.97 "
   id="polygon3013"
   style="fill:#ffffff"
   transform="matrix(1.75,0,0,1.75,2.843625,2.413125)" />
<g
   id="g3015"
   transform="matrix(1.75,0,0,1.75,-18.156375,23.413125)">
</g>
<g
   id="g3017"
   transform="matrix(1.75,0,0,1.75,-18.156375,23.413125)">
</g>
<g
   id="g3019"
   transform="matrix(1.75,0,0,1.75,-18.156375,23.413125)">
</g>
<g
   id="g3021"
   transform="matrix(1.75,0,0,1.75,-18.156375,23.413125)">
</g>
<g
   id="g3023"
   transform="matrix(1.75,0,0,1.75,-18.156375,23.413125)">
</g>
</svg>