<?xml version="1.0" encoding="utf-8"?>
<!-- Generator: Adobe Illustrator 16.0.3, SVG Export Plug-In . SVG Version: 6.00 Build 0)  -->
<!DOCTYPE svg PUBLIC "-//W3C//DTD SVG 1.1//EN" "http://www.w3.org/Graphics/SVG/1.1/DTD/svg11.dtd">
<svg version="1.1" xmlns="http://www.w3.org/2000/svg" xmlns:xlink="http://www.w3.org/1999/xlink" x="0px" y="0px" width="40px"
	 height="25px" viewBox="0 0 40 25" enable-background="new 0 0 40 25" xml:space="preserve">
<g id="Layer_1" display="none">
	<rect display="inline" width="40" height="25"/>
</g>
<g id="Layer_3" opacity="0.4">
	<g>
		<path fill="#FFFFFF" d="M33.102,24.837c-0.277-0.396-0.737-1.131-0.737-1.131l-0.777-1.399l0.108-0.888l0.563-0.424
			c0,0-0.563-1.261-0.886-1.424c-0.322-0.162-0.81-0.313-0.81-0.313s-0.128-0.695-0.258-1.544c-0.129-0.847-0.72-1.979-0.72-1.979
			l1.672-1.596l0.025-0.821c0,0,0.651-0.688,0.581-1.257c-0.052-0.411-0.272-1.27-0.428-1.578c-0.093-0.186-0.454-0.509-0.729-0.738
			l-0.464,0.237l-0.74,1.77l-0.695,1.63L27.8,15.412l-2.356,1.318l-1.957-0.11l-6.464-1.753l0.004,0.664l-6.135,2.533l-2.287-1.983
			l-0.052,0.322L6.85,17.172c0,0-0.174,0.867,0.031,1.624c0.064,0.235,0.395,1.029,0.584,1.397c0.364,0.707,1.138,1.147,1.138,1.147
			l0.874-0.103l0.541,1.543c0,0,0.179,1.104,0.309,1.568c0.042,0.148,0.121,0.392,0.208,0.65h6.253l-0.471-0.984
			c-0.077-0.284-0.926-2.134-0.926-2.134s0.181-0.026,1.132-0.694l0.876-1.004l2.313-1.534l-0.369-1.981l0.849,0.654l1.148,1.524
			l0.549,0.068l0.857,0.069l0.993,0.188l0.095,0.651l0.891,0.667c-0.231,0.054-0.796,0.414-0.796,0.414l-0.051,0.796
			c0,0-0.233,0.154-0.516,0.54s-0.334,1.007-0.334,1.007L24.646,25h0.098l1.508-0.654l0.617-0.206L27.558,25h5.632
			C33.163,24.939,33.135,24.884,33.102,24.837z"/>
	</g>
	<polygon fill="#FFFFFF" points="9.895,11.458 8.531,12.086 8.505,14.989 11.042,17.185 16.252,15.025 16.252,14.66 15.872,14.557 
		14.47,12.815 11.674,13.691 	"/>
	<path fill="#FFFFFF" d="M29.837,6.431l-0.166-3.324l-1.986-1.47l-1.096-1.123L25.289,0H12.855c-0.169,0.032-0.436,0.087-0.745,0.17
		c-0.144,0.039-0.38,0.113-0.372,0.161c0.049,0.277,0.069,0.415,0.069,0.415L10.443,0.69L9.296,4.391L8.889,5.847l0.703,0.219
		L9.463,6.899l1.102,1.413l0.602,0.28l-0.163,1.154c-0.297,0.834-0.365,1.415-0.365,1.415l1.341,1.636l2.756-0.868l1.583,1.956
		l7.28,1.976l1.648,0.104l1.974-1.096l0.884-1.783l1.716-4.071l-0.302-1.248L29.837,6.431z M25.336,13.606
		c-0.756,0-1.368-0.612-1.368-1.368c0-0.755,0.612-1.368,1.368-1.368c0.755,0,1.366,0.613,1.366,1.368
		C26.702,12.994,26.091,13.606,25.336,13.606z"/>
	<polygon fill="#FFFFFF" points="30.531,5.22 32.074,6.53 32.09,8.09 30.574,8.924 30.301,7.779 30.594,6.512 	"/>
	<g>
	</g>
	<g>
	</g>
	<g>
	</g>
	<g>
	</g>
	<g>
	</g>
</g>
</svg>
